<svg width="40" height="40" viewBox="0 0 40 40" fill="none" xmlns="http://www.w3.org/2000/svg">
<g clip-path="url(#clip0_222_2543)">
<path d="M39.1525 17.1714L35.6026 13.6215C35.4855 13.5043 35.3267 13.4385 35.1611 13.4385C34.9954 13.4385 34.8366 13.5043 34.7195 13.6215L19.9604 28.3807L5.20098 13.6214C4.95707 13.3775 4.5616 13.3775 4.31777 13.6214L0.767852 17.1714C0.650742 17.2885 0.584961 17.4473 0.584961 17.6129C0.584961 17.7786 0.650742 17.9374 0.76793 18.0545L14.8955 32.1804V38.4963C14.8955 38.8412 15.1751 39.1208 15.52 39.1208H24.4004C24.7453 39.1208 25.025 38.8412 25.025 38.4963V32.1805L39.1525 18.0546C39.2697 17.9375 39.3355 17.7786 39.3355 17.613C39.3355 17.4474 39.2697 17.2886 39.1526 17.1715L39.1525 17.1714ZM23.7759 37.8718H16.1445V33.4293L19.5186 36.8031C19.6406 36.925 19.8004 36.9861 19.9602 36.9861C20.12 36.9861 20.2798 36.925 20.4018 36.8031L23.7759 33.4293V37.8718ZM1.4841 8.87653H8.76996V10.5441C8.76996 10.889 9.04957 11.1686 9.39449 11.1686H14.8955V15.5002C14.8955 15.8451 15.1751 16.1247 15.52 16.1247H17.2009V22.5336C17.2009 22.6993 17.2667 22.8581 17.3838 22.9752L19.5186 25.11C19.6357 25.2272 19.7946 25.293 19.9602 25.293C20.1258 25.293 20.2846 25.2272 20.4018 25.11L22.5366 22.9752C22.6537 22.8581 22.7195 22.6993 22.7195 22.5336V16.1247H24.4004C24.7453 16.1247 25.0249 15.8451 25.0249 15.5002V11.1686H30.5259C30.8708 11.1686 31.1504 10.889 31.1504 10.5441V8.87653H38.4364C38.7813 8.87653 39.0609 8.59692 39.0609 8.252V3.66778C39.0609 3.32286 38.7813 3.04325 38.4364 3.04325H31.1504V1.37575C31.1504 1.03083 30.8708 0.751221 30.5259 0.751221H9.39449C9.04957 0.751221 8.76996 1.03083 8.76996 1.37575V3.04325H1.4841C1.13918 3.04325 0.85957 3.32286 0.85957 3.66778V8.252C0.85957 8.59692 1.13918 8.87653 1.4841 8.87653ZM31.1504 4.29231H37.8118V7.62739H31.1504V4.29231ZM23.7759 14.8757H16.1445V11.1686H23.7759V14.8757ZM2.10855 4.29231H8.76996V7.62739H2.10855V4.29231ZM13.9441 15.7106L15.1732 20.2947C15.2625 20.6279 15.0648 20.9704 14.7317 21.0597C14.6775 21.0743 14.6231 21.0811 14.5696 21.0811C14.2939 21.0811 14.0415 20.8972 13.9668 20.6182L12.7377 16.034C12.6484 15.7008 12.8461 15.3584 13.1792 15.2691C13.5125 15.1796 13.8548 15.3775 13.9442 15.7105L13.9441 15.7106ZM26.7413 15.2692C27.0744 15.3585 27.2721 15.7009 27.1828 16.0341L25.9537 20.6182C25.8789 20.8972 25.6265 21.0812 25.3509 21.0812C25.2973 21.0812 25.243 21.0743 25.1888 21.0597C24.8557 20.9704 24.658 20.628 24.7473 20.2948L25.9764 15.7107C26.0657 15.3775 26.408 15.1797 26.7414 15.2693L26.7413 15.2692Z" fill="#44798E"/>
</g>
<defs>
<clipPath id="clip0_222_2543">
<rect width="40" height="40" fill="white"/>
</clipPath>
</defs>
</svg>
