<svg width="40" height="40" viewBox="0 0 40 40" fill="none" xmlns="http://www.w3.org/2000/svg">
<path d="M28 0C34.6274 2.57703e-07 40 5.37258 40 12V28C40 34.6274 34.6274 40 28 40H12C5.37258 40 2.57711e-07 34.6274 0 28V12C2.57711e-07 5.37258 5.37258 2.57703e-07 12 0H28ZM21.2314 11.96C18.9716 11.96 17.1721 13.7598 17.1719 16.0195C17.1719 17.1195 17.4716 17.8003 18.3916 18.7803C16.9516 19.5803 16.2715 20.7399 16.2715 22.3799C16.2715 25.1397 18.4112 27.2595 21.2109 27.2598C24.0108 27.2598 26.1112 25.1602 26.1113 22.3604C26.1113 20.6804 25.5312 19.6803 24.0312 18.7803C24.8911 18.1004 25.2714 17.2402 25.2715 15.9805C25.2715 13.6805 23.5514 11.96 21.2314 11.96ZM7.90039 14.7197H9.75977V27H12.4199V12.2197H7.90039V14.7197ZM30.4561 16V19.5098H27V21.6338H30.4561V25.1436H32.6162V21.6338H36.0723V19.5098H32.6162V16H30.4561ZM21.1719 20.1797C22.4517 20.1799 23.4512 21.1806 23.4512 22.4805C23.4509 23.8202 22.4913 24.8203 21.2314 24.8203C19.9314 24.8203 18.9316 23.8 18.9316 22.5C18.9316 21.22 19.9319 20.1797 21.1719 20.1797ZM21.2109 14.4004C22.0709 14.4004 22.7314 15.0805 22.7314 15.9805C22.7312 16.9002 22.0713 17.6201 21.2314 17.6201C20.3914 17.6201 19.7109 16.9195 19.7109 16.0195C19.7112 15.1199 20.3713 14.4007 21.2109 14.4004Z" fill="url(#paint0_linear_23_19642)"/>
<path d="M28 0C34.6274 2.57703e-07 40 5.37258 40 12V28C40 34.6274 34.6274 40 28 40H12C5.37258 40 2.57711e-07 34.6274 0 28V12C2.57711e-07 5.37258 5.37258 2.57703e-07 12 0H28ZM21.2314 11.96C18.9716 11.96 17.1721 13.7598 17.1719 16.0195C17.1719 17.1195 17.4716 17.8003 18.3916 18.7803C16.9516 19.5803 16.2715 20.7399 16.2715 22.3799C16.2715 25.1397 18.4112 27.2595 21.2109 27.2598C24.0108 27.2598 26.1112 25.1602 26.1113 22.3604C26.1113 20.6804 25.5312 19.6803 24.0312 18.7803C24.8911 18.1004 25.2714 17.2402 25.2715 15.9805C25.2715 13.6805 23.5514 11.96 21.2314 11.96ZM7.90039 14.7197H9.75977V27H12.4199V12.2197H7.90039V14.7197ZM30.4561 16V19.5098H27V21.6338H30.4561V25.1436H32.6162V21.6338H36.0723V19.5098H32.6162V16H30.4561ZM21.1719 20.1797C22.4517 20.1799 23.4512 21.1806 23.4512 22.4805C23.4509 23.8202 22.4913 24.8203 21.2314 24.8203C19.9314 24.8203 18.9316 23.8 18.9316 22.5C18.9316 21.22 19.9319 20.1797 21.1719 20.1797ZM21.2109 14.4004C22.0709 14.4004 22.7314 15.0805 22.7314 15.9805C22.7312 16.9002 22.0713 17.6201 21.2314 17.6201C20.3914 17.6201 19.7109 16.9195 19.7109 16.0195C19.7112 15.1199 20.3713 14.4007 21.2109 14.4004Z" fill="url(#paint1_linear_23_19642)"/>
<defs>
<linearGradient id="paint0_linear_23_19642" x1="0" y1="20" x2="40" y2="20" gradientUnits="userSpaceOnUse">
<stop stop-color="#4CD095"/>
<stop offset="1" stop-color="#1FAC6C"/>
</linearGradient>
<linearGradient id="paint1_linear_23_19642" x1="0" y1="20" x2="40" y2="20" gradientUnits="userSpaceOnUse">
<stop stop-color="#D04C4C"/>
<stop offset="1" stop-color="#AC1F1F"/>
</linearGradient>
</defs>
</svg>
