<svg width="86" height="52" viewBox="0 0 86 52" fill="none" xmlns="http://www.w3.org/2000/svg">
<rect width="52" height="52" rx="26" fill="#1FAC6C"/>
<path d="M22.0491 27.4642C21.6409 27.4642 21.31 27.1333 21.31 26.7251C21.31 26.3169 21.6409 25.986 22.0491 25.986H26.8715C26.9586 25.986 27.0648 25.9833 27.19 25.9778C27.3206 25.9669 27.4595 25.9397 27.6065 25.8962C28.1074 25.7709 28.4721 25.5232 28.7008 25.153C28.9349 24.7828 29.052 24.3554 29.052 23.8708C29.052 23.5714 29.003 23.2774 28.905 22.9888C28.8124 22.6948 28.66 22.4389 28.4476 22.2212C28.2408 21.9979 27.9604 21.8455 27.6065 21.7638C27.4704 21.7257 27.3315 21.7039 27.19 21.6985C27.0484 21.6876 26.9423 21.6822 26.8715 21.6822H23.6701V20.0733H26.9368C27.0021 20.0733 27.1165 20.0761 27.2798 20.0815C27.4486 20.0869 27.6337 20.106 27.8351 20.1387C28.4939 20.2421 29.0411 20.4653 29.4766 20.8083C29.9176 21.1513 30.247 21.5842 30.4648 22.1068C30.6826 22.6241 30.7915 23.1984 30.7915 23.83C30.7915 24.7828 30.5438 25.5804 30.0483 26.2228C29.5529 26.8598 28.8151 27.2518 27.8351 27.3988C27.6337 27.4315 27.4486 27.4506 27.2798 27.456C27.1165 27.4614 27.0021 27.4642 26.9368 27.4642H22.0491ZM21.996 30.102C21.6171 30.102 21.31 29.7949 21.31 29.416C21.31 29.0371 21.6171 28.73 21.996 28.73H27.3778C27.7567 28.73 28.0638 29.0371 28.0638 29.416C28.0638 29.7949 27.7567 30.102 27.3778 30.102H21.996ZM23.3639 31.8333C22.8926 31.8333 22.5105 31.4512 22.5105 30.9799V21.0733C22.5105 20.521 22.9582 20.0733 23.5105 20.0733H24.2173V30.9799C24.2173 31.4512 23.8352 31.8333 23.3639 31.8333Z" fill="white"/>
<path d="M37.6667 26C37.6667 32.44 32.44 37.6667 26 37.6667C19.56 37.6667 14.3333 32.44 14.3333 26C14.3333 19.56 19.56 14.3333 26 14.3333" stroke="white" stroke-width="1.5" stroke-linecap="round" stroke-linejoin="round"/>
<path d="M37.6667 19V14.3333H33" stroke="white" stroke-width="1.5" stroke-linecap="round" stroke-linejoin="round"/>
<path d="M31.8333 20.1667L37.6667 14.3333" stroke="white" stroke-width="1.5" stroke-linecap="round" stroke-linejoin="round"/>
<rect x="34" width="52" height="52" rx="26" fill="#2F80ED"/>
<path d="M67.0467 27.8083C66.5567 28.2867 66.2767 28.975 66.3467 29.71C66.4517 30.97 67.6067 31.8917 68.8667 31.8917H71.0833V33.28C71.0833 35.695 69.1117 37.6667 66.6967 37.6667H53.3033C50.8883 37.6667 48.9167 35.695 48.9167 33.28V25.4284C48.9167 23.0134 50.8883 21.0417 53.3033 21.0417H66.6967C69.1117 21.0417 71.0833 23.0134 71.0833 25.4284V27.1084H68.7267C68.0733 27.1084 67.4783 27.365 67.0467 27.8083Z" stroke="white" stroke-width="1.5" stroke-linecap="round" stroke-linejoin="round"/>
<path d="M48.9167 26.4783V21.1467C48.9167 19.7584 49.7683 18.5217 51.0633 18.0317L60.3267 14.5317C61.7733 13.9833 63.325 15.0567 63.325 16.6084V21.0417" stroke="white" stroke-width="1.5" stroke-linecap="round" stroke-linejoin="round"/>
<path d="M72.3186 28.2985V30.7019C72.3186 31.3436 71.8053 31.8685 71.152 31.8919H68.8653C67.6053 31.8919 66.4503 30.9702 66.3453 29.7102C66.2753 28.9752 66.5553 28.2869 67.0453 27.8085C67.477 27.3652 68.072 27.1086 68.7253 27.1086H71.152C71.8053 27.1319 72.3186 27.6568 72.3186 28.2985Z" stroke="white" stroke-width="1.5" stroke-linecap="round" stroke-linejoin="round"/>
<path d="M54.1667 26H62.3333" stroke="white" stroke-width="1.5" stroke-linecap="round" stroke-linejoin="round"/>
</svg>
