<svg width="204" height="39" viewBox="0 0 204 39" fill="none" xmlns="http://www.w3.org/2000/svg">
<g clip-path="url(#clip0_23_15523)">
<path d="M107.058 1.65957H4.21488C1.88706 1.65957 0 3.51711 0 5.80851V32.3617C0 34.6531 1.88706 36.5106 4.21488 36.5106H107.058C109.386 36.5106 111.273 34.6531 111.273 32.3617V5.80851C111.273 3.51711 109.386 1.65957 107.058 1.65957Z" fill="#1FAC6C"/>
<g filter="url(#filter0_d_23_15523)">
<path d="M11.3707 29.2168C8.75465 29.2168 6.8074 28.5295 5.52889 27.1548C4.27005 25.7801 3.64062 23.9117 3.64062 21.5496C3.64062 20.291 3.75864 18.926 3.99467 17.4546C4.34872 15.1892 4.89947 13.3112 5.64691 11.8203C6.39435 10.3101 7.40732 9.17744 8.68587 8.42233C9.96432 7.66723 11.5674 7.28967 13.495 7.28967C15.3243 7.28967 16.8388 7.45424 18.0387 7.7834C19.2581 8.09318 20.1826 8.403 20.8121 8.71276L20.0745 13.1853C19.2876 12.953 18.3927 12.7594 17.3896 12.6045C16.3864 12.4302 15.4423 12.3431 14.5572 12.3431C13.9277 12.3431 13.3573 12.4012 12.8459 12.5173C12.3345 12.6142 11.8821 12.8561 11.4888 13.2434C11.0953 13.6307 10.7512 14.2308 10.4561 15.044C10.1611 15.8572 9.89553 16.9802 9.6595 18.413C9.56113 19.0712 9.47261 19.6715 9.39396 20.2136C9.33496 20.7364 9.30545 21.2011 9.30545 21.6077C9.30545 22.4983 9.56113 23.1469 10.0726 23.5535C10.6036 23.9601 11.5478 24.1634 12.905 24.1634C14.1441 24.1634 15.157 24.1344 15.9439 24.0763C16.7306 23.9988 17.5371 23.9213 18.3632 23.8439L17.6551 28.2874C16.652 28.6747 15.5996 28.9264 14.4982 29.0425C13.3967 29.1587 12.3542 29.2168 11.3707 29.2168ZM20.9241 29.0425L30.8965 7.46393H38.0365L41.0459 29.0425H35.1156L34.791 25.6155H28.2116L26.7954 29.0425H20.9241ZM30.3359 20.5621H34.26L33.6404 12.2559L30.3359 20.5621ZM44.94 29.0425L48.4214 7.46393H57.0366C59.1216 7.46393 60.705 7.91893 61.7868 8.82893C62.8686 9.71954 63.4095 11.1426 63.4095 13.0982C63.4095 13.679 63.3505 14.318 63.2325 15.015C63.0358 16.3122 62.6916 17.3384 62.1999 18.0935C61.7278 18.8293 61.2164 19.3907 60.6657 19.778C60.1149 20.1652 59.6526 20.4653 59.279 20.6783L61.7278 29.0425H55.9155L54.0567 21.6077H51.8734L50.6638 29.0425H44.94ZM52.5815 17.1351H54.9714C55.8958 17.1351 56.5154 16.9318 56.8301 16.5252C57.1448 16.1186 57.3612 15.5087 57.4792 14.6955C57.5186 14.5406 57.5382 14.4051 57.5382 14.2889C57.5382 14.1534 57.5382 14.0275 57.5382 13.9114C57.5382 13.4854 57.4202 13.1466 57.1842 12.8949C56.9481 12.6432 56.5154 12.5173 55.886 12.5173H53.3191L52.5815 17.1351ZM65.8452 29.0425L69.3267 7.46393H77.9419C80.0269 7.46393 81.6103 7.91893 82.6921 8.82893C83.774 9.71954 84.3152 11.1426 84.3152 13.0982C84.3152 13.679 84.2558 14.318 84.1378 15.015C83.9411 16.3122 83.5969 17.3384 83.1051 18.0935C82.6331 18.8293 82.1217 19.3907 81.5709 19.778C81.0202 20.1652 80.5579 20.4653 80.1842 20.6783L82.6331 29.0425H76.8208L74.962 21.6077H72.7787L71.569 29.0425H65.8452ZM73.4868 17.1351H75.8766C76.8011 17.1351 77.4207 16.9318 77.7354 16.5252C78.0501 16.1186 78.2665 15.5087 78.3845 14.6955C78.4239 14.5406 78.4435 14.4051 78.4435 14.2889C78.4435 14.1534 78.4435 14.0275 78.4435 13.9114C78.4435 13.4854 78.3255 13.1466 78.0894 12.8949C77.8534 12.6432 77.4207 12.5173 76.7913 12.5173H74.2244L73.4868 17.1351ZM91.8252 29.0425L92.7694 23.234L88.9043 7.46393H95.1297L96.5754 17.1932L101.326 7.46393H107.787L98.4932 23.234L97.549 29.0425H91.8252Z" fill="white"/>
<path d="M126.084 29.2168C123.468 29.2168 121.521 28.5295 120.242 27.1548C118.983 25.7801 118.354 23.9117 118.354 21.5496C118.354 20.291 118.472 18.926 118.708 17.4546C119.062 15.1892 119.613 13.3112 120.36 11.8203C121.108 10.3101 122.121 9.17744 123.399 8.42233C124.678 7.66723 126.281 7.28967 128.208 7.28967C130.037 7.28967 131.552 7.45424 132.752 7.7834C133.971 8.09318 134.896 8.403 135.525 8.71276L134.787 13.1853C134.001 12.953 133.106 12.7594 132.103 12.6045C131.099 12.4302 130.155 12.3431 129.27 12.3431C128.641 12.3431 128.071 12.4012 127.559 12.5173C127.048 12.6142 126.595 12.8561 126.202 13.2434C125.809 13.6307 125.464 14.2308 125.169 15.044C124.874 15.8572 124.609 16.9802 124.372 18.413C124.275 19.0712 124.186 19.6715 124.107 20.2136C124.048 20.7364 124.018 21.2011 124.018 21.6077C124.018 22.4983 124.275 23.1469 124.786 23.5535C125.317 23.9601 126.261 24.1634 127.618 24.1634C128.857 24.1634 129.87 24.1344 130.657 24.0763C131.444 23.9988 132.25 23.9213 133.076 23.8439L132.368 28.2874C131.365 28.6747 130.313 28.9264 129.211 29.0425C128.11 29.1587 127.067 29.2168 126.084 29.2168ZM135.637 29.0425L145.61 7.46393H152.75L155.759 29.0425H149.829L149.504 25.6155H142.925L141.508 29.0425H135.637ZM145.049 20.5621H148.973L148.353 12.2559L145.049 20.5621ZM167.148 29.2168C165.397 29.2168 163.902 29.1297 162.663 28.9554C161.424 28.7618 160.431 28.5682 159.683 28.3746L160.391 23.902C161.316 23.9794 162.358 24.0472 163.519 24.1053C164.699 24.1441 165.86 24.1634 167 24.1634C168.121 24.1634 168.908 24.0666 169.36 23.873C169.813 23.66 170.079 23.2921 170.157 22.7694L170.216 22.4499C170.235 22.3725 170.246 22.3047 170.246 22.2466C170.246 22.1885 170.246 22.1304 170.246 22.0723C170.246 21.6851 170.079 21.4141 169.744 21.2591C169.43 21.1042 168.908 21.0268 168.18 21.0268H167C165.21 21.0268 163.814 20.5524 162.81 19.6037C161.827 18.6356 161.335 17.4158 161.335 15.9444C161.335 15.5378 161.365 15.1215 161.424 14.6955L161.689 13.0401C162.024 10.9684 162.909 9.49691 164.345 8.62563C165.801 7.735 167.698 7.28967 170.039 7.28967C171.121 7.28967 172.222 7.35744 173.343 7.49297C174.484 7.60914 175.664 7.82211 176.884 8.13191L176.176 12.6045C175.094 12.5076 173.923 12.4399 172.665 12.4012C171.406 12.3624 170.285 12.3431 169.301 12.3431C168.692 12.3431 168.18 12.4495 167.767 12.6625C167.374 12.8561 167.128 13.2046 167.03 13.7081L166.971 14.0275C166.951 14.105 166.931 14.1921 166.912 14.2889C166.912 14.3663 166.912 14.4438 166.912 14.5213C166.912 15.3151 167.413 15.712 168.416 15.712H169.714C171.701 15.712 173.215 16.1864 174.258 17.1351C175.301 18.0645 175.822 19.2455 175.822 20.6783C175.822 21.0268 175.792 21.4044 175.733 21.8109L175.409 23.8439C175.232 25.0056 174.858 25.9834 174.288 26.7772C173.737 27.5711 172.891 28.181 171.75 28.6069C170.629 29.0135 169.095 29.2168 167.148 29.2168ZM178.571 29.0425L182.052 7.46393H187.776L186.419 15.7701H192.91L194.267 7.46393H199.991L196.509 29.0425H190.785L192.113 20.8235H185.622L184.295 29.0425H178.571Z" fill="#1FAC6C"/>
</g>
</g>
<defs>
<filter id="filter0_d_23_15523" x="-0.359375" y="7.28967" width="204.35" height="29.9271" filterUnits="userSpaceOnUse" color-interpolation-filters="sRGB">
<feFlood flood-opacity="0" result="BackgroundImageFix"/>
<feColorMatrix in="SourceAlpha" type="matrix" values="0 0 0 0 0 0 0 0 0 0 0 0 0 0 0 0 0 0 127 0" result="hardAlpha"/>
<feOffset dy="4"/>
<feGaussianBlur stdDeviation="2"/>
<feColorMatrix type="matrix" values="0 0 0 0 0 0 0 0 0 0 0 0 0 0 0 0 0 0 0.25 0"/>
<feBlend mode="normal" in2="BackgroundImageFix" result="effect1_dropShadow_23_15523"/>
<feBlend mode="normal" in="SourceGraphic" in2="effect1_dropShadow_23_15523" result="shape"/>
</filter>
<clipPath id="clip0_23_15523">
<rect width="204" height="39" fill="white"/>
</clipPath>
</defs>
</svg>
